<mxfile host="app.diagrams.net" agent="Mozilla/5.0 (Macintosh; Intel Mac OS X 10.15; rv:129.0) Gecko/20100101 Firefox/129.0" version="24.7.8">
  <diagram name="Page-1" id="ZNFxOjxP5cYbFs4iC51F">
    <mxGraphModel dx="985" dy="917" grid="1" gridSize="10" guides="1" tooltips="1" connect="1" arrows="1" fold="1" page="1" pageScale="1" pageWidth="850" pageHeight="1100" math="0" shadow="0">
      <root>
        <mxCell id="0" />
        <mxCell id="1" parent="0" />
        <mxCell id="dOWbaqf8AtoHvRZ55A_9-10" value="" style="endArrow=oval;html=1;rounded=0;strokeColor=default;entryX=0.857;entryY=0.5;entryDx=0;entryDy=0;endFill=1;entryPerimeter=0;" parent="1" target="G9SRQUJ1ZkAxIyxl74F2-48" edge="1">
          <mxGeometry width="50" height="50" relative="1" as="geometry">
            <mxPoint x="56" y="299.83" as="sourcePoint" />
            <mxPoint x="116" y="299.83" as="targetPoint" />
            <Array as="points" />
          </mxGeometry>
        </mxCell>
        <mxCell id="G9SRQUJ1ZkAxIyxl74F2-2" value="5" style="whiteSpace=wrap;html=1;aspect=fixed;fontSize=24;" parent="1" vertex="1">
          <mxGeometry x="80" y="40" width="40" height="40" as="geometry" />
        </mxCell>
        <mxCell id="G9SRQUJ1ZkAxIyxl74F2-3" value="&lt;font face=&quot;Courier New&quot;&gt;x&lt;/font&gt;" style="whiteSpace=wrap;html=1;fontSize=24;align=left;fillColor=none;strokeColor=none;" parent="1" vertex="1">
          <mxGeometry x="40" y="40" width="70" height="40" as="geometry" />
        </mxCell>
        <mxCell id="G9SRQUJ1ZkAxIyxl74F2-12" value="5" style="whiteSpace=wrap;html=1;aspect=fixed;fontSize=24;" parent="1" vertex="1">
          <mxGeometry x="98" y="120" width="40" height="40" as="geometry" />
        </mxCell>
        <mxCell id="G9SRQUJ1ZkAxIyxl74F2-13" value="&lt;font face=&quot;Courier New&quot;&gt;x&lt;/font&gt;" style="whiteSpace=wrap;html=1;fontSize=24;align=left;fillColor=none;strokeColor=none;" parent="1" vertex="1">
          <mxGeometry x="40" y="120" width="70" height="40" as="geometry" />
        </mxCell>
        <mxCell id="G9SRQUJ1ZkAxIyxl74F2-14" value="" style="endArrow=classic;html=1;rounded=0;exitX=0.833;exitY=0.5;exitDx=0;exitDy=0;exitPerimeter=0;strokeColor=default;entryX=0;entryY=0.5;entryDx=0;entryDy=0;" parent="1" target="G9SRQUJ1ZkAxIyxl74F2-12" edge="1">
          <mxGeometry width="50" height="50" relative="1" as="geometry">
            <mxPoint x="56.309999999999945" y="140" as="sourcePoint" />
            <mxPoint x="78" y="140" as="targetPoint" />
            <Array as="points" />
          </mxGeometry>
        </mxCell>
        <mxCell id="G9SRQUJ1ZkAxIyxl74F2-15" value="6" style="whiteSpace=wrap;html=1;aspect=fixed;fontSize=24;" parent="1" vertex="1">
          <mxGeometry x="98" y="200" width="40" height="40" as="geometry" />
        </mxCell>
        <mxCell id="G9SRQUJ1ZkAxIyxl74F2-16" value="&lt;font face=&quot;Courier New&quot;&gt;x&lt;/font&gt;" style="whiteSpace=wrap;html=1;fontSize=24;align=left;fillColor=none;strokeColor=none;" parent="1" vertex="1">
          <mxGeometry x="40" y="200" width="70" height="40" as="geometry" />
        </mxCell>
        <mxCell id="G9SRQUJ1ZkAxIyxl74F2-17" value="" style="endArrow=classic;html=1;rounded=0;exitX=0.833;exitY=0.5;exitDx=0;exitDy=0;exitPerimeter=0;strokeColor=default;entryX=0;entryY=0.5;entryDx=0;entryDy=0;" parent="1" target="G9SRQUJ1ZkAxIyxl74F2-15" edge="1">
          <mxGeometry width="50" height="50" relative="1" as="geometry">
            <mxPoint x="56.309999999999945" y="220" as="sourcePoint" />
            <mxPoint x="78" y="220" as="targetPoint" />
            <Array as="points" />
          </mxGeometry>
        </mxCell>
        <mxCell id="G9SRQUJ1ZkAxIyxl74F2-18" value="2" style="whiteSpace=wrap;html=1;aspect=fixed;fontSize=24;" parent="1" vertex="1">
          <mxGeometry x="138" y="200" width="40" height="40" as="geometry" />
        </mxCell>
        <mxCell id="G9SRQUJ1ZkAxIyxl74F2-19" value="5" style="whiteSpace=wrap;html=1;aspect=fixed;fontSize=24;" parent="1" vertex="1">
          <mxGeometry x="178" y="200" width="40" height="40" as="geometry" />
        </mxCell>
        <mxCell id="G9SRQUJ1ZkAxIyxl74F2-20" value="1" style="whiteSpace=wrap;html=1;aspect=fixed;fontSize=24;" parent="1" vertex="1">
          <mxGeometry x="338" y="80" width="40" height="40" as="geometry" />
        </mxCell>
        <mxCell id="G9SRQUJ1ZkAxIyxl74F2-21" value="&lt;font face=&quot;Courier New&quot;&gt;a&lt;/font&gt;" style="whiteSpace=wrap;html=1;fontSize=24;align=left;fillColor=none;strokeColor=none;" parent="1" vertex="1">
          <mxGeometry x="280" y="50" width="70" height="40" as="geometry" />
        </mxCell>
        <mxCell id="G9SRQUJ1ZkAxIyxl74F2-22" value="" style="endArrow=classic;html=1;rounded=0;strokeColor=default;entryX=0;entryY=0.5;entryDx=0;entryDy=0;exitX=1;exitY=0.5;exitDx=0;exitDy=0;" parent="1" target="G9SRQUJ1ZkAxIyxl74F2-20" edge="1">
          <mxGeometry width="50" height="50" relative="1" as="geometry">
            <mxPoint x="295" y="70" as="sourcePoint" />
            <mxPoint x="318" y="100" as="targetPoint" />
            <Array as="points" />
          </mxGeometry>
        </mxCell>
        <mxCell id="G9SRQUJ1ZkAxIyxl74F2-23" value="2" style="whiteSpace=wrap;html=1;aspect=fixed;fontSize=24;" parent="1" vertex="1">
          <mxGeometry x="378" y="80" width="40" height="40" as="geometry" />
        </mxCell>
        <mxCell id="G9SRQUJ1ZkAxIyxl74F2-24" value="3" style="whiteSpace=wrap;html=1;aspect=fixed;fontSize=24;" parent="1" vertex="1">
          <mxGeometry x="418" y="80" width="40" height="40" as="geometry" />
        </mxCell>
        <mxCell id="G9SRQUJ1ZkAxIyxl74F2-25" value="&lt;font face=&quot;Courier New&quot;&gt;b&lt;/font&gt;" style="whiteSpace=wrap;html=1;fontSize=24;align=left;fillColor=none;strokeColor=none;" parent="1" vertex="1">
          <mxGeometry x="280" y="110" width="70" height="40" as="geometry" />
        </mxCell>
        <mxCell id="G9SRQUJ1ZkAxIyxl74F2-29" value="" style="endArrow=classic;html=1;rounded=0;strokeColor=default;entryX=0;entryY=0.5;entryDx=0;entryDy=0;exitX=1;exitY=0.5;exitDx=0;exitDy=0;" parent="1" target="G9SRQUJ1ZkAxIyxl74F2-20" edge="1">
          <mxGeometry width="50" height="50" relative="1" as="geometry">
            <mxPoint x="295" y="130" as="sourcePoint" />
            <mxPoint x="348" y="110" as="targetPoint" />
            <Array as="points" />
          </mxGeometry>
        </mxCell>
        <mxCell id="G9SRQUJ1ZkAxIyxl74F2-34" value="1" style="whiteSpace=wrap;html=1;aspect=fixed;fontSize=24;" parent="1" vertex="1">
          <mxGeometry x="340" y="200" width="40" height="40" as="geometry" />
        </mxCell>
        <mxCell id="G9SRQUJ1ZkAxIyxl74F2-35" value="&lt;font face=&quot;Courier New&quot;&gt;a&lt;/font&gt;" style="whiteSpace=wrap;html=1;fontSize=24;align=left;fillColor=none;strokeColor=none;" parent="1" vertex="1">
          <mxGeometry x="282" y="170" width="70" height="40" as="geometry" />
        </mxCell>
        <mxCell id="G9SRQUJ1ZkAxIyxl74F2-36" value="" style="endArrow=classic;html=1;rounded=0;strokeColor=default;entryX=0;entryY=0.5;entryDx=0;entryDy=0;exitX=1;exitY=0.5;exitDx=0;exitDy=0;" parent="1" target="G9SRQUJ1ZkAxIyxl74F2-34" edge="1">
          <mxGeometry width="50" height="50" relative="1" as="geometry">
            <mxPoint x="297" y="190" as="sourcePoint" />
            <mxPoint x="320" y="220" as="targetPoint" />
            <Array as="points" />
          </mxGeometry>
        </mxCell>
        <mxCell id="G9SRQUJ1ZkAxIyxl74F2-37" value="2" style="whiteSpace=wrap;html=1;aspect=fixed;fontSize=24;" parent="1" vertex="1">
          <mxGeometry x="380" y="200" width="40" height="40" as="geometry" />
        </mxCell>
        <mxCell id="G9SRQUJ1ZkAxIyxl74F2-38" value="3" style="whiteSpace=wrap;html=1;aspect=fixed;fontSize=24;" parent="1" vertex="1">
          <mxGeometry x="420" y="200" width="40" height="40" as="geometry" />
        </mxCell>
        <mxCell id="G9SRQUJ1ZkAxIyxl74F2-39" value="&lt;font face=&quot;Courier New&quot;&gt;b&lt;/font&gt;" style="whiteSpace=wrap;html=1;fontSize=24;align=left;fillColor=none;strokeColor=none;" parent="1" vertex="1">
          <mxGeometry x="282" y="230" width="70" height="40" as="geometry" />
        </mxCell>
        <mxCell id="G9SRQUJ1ZkAxIyxl74F2-40" value="" style="endArrow=classic;html=1;rounded=0;strokeColor=default;entryX=0;entryY=0.5;entryDx=0;entryDy=0;exitX=1;exitY=0.5;exitDx=0;exitDy=0;" parent="1" target="G9SRQUJ1ZkAxIyxl74F2-34" edge="1">
          <mxGeometry width="50" height="50" relative="1" as="geometry">
            <mxPoint x="297" y="250" as="sourcePoint" />
            <mxPoint x="350" y="230" as="targetPoint" />
            <Array as="points" />
          </mxGeometry>
        </mxCell>
        <mxCell id="G9SRQUJ1ZkAxIyxl74F2-41" value="1" style="whiteSpace=wrap;html=1;aspect=fixed;fontSize=24;" parent="1" vertex="1">
          <mxGeometry x="338" y="290" width="40" height="40" as="geometry" />
        </mxCell>
        <mxCell id="G9SRQUJ1ZkAxIyxl74F2-42" value="&lt;font face=&quot;Courier New&quot;&gt;c&lt;/font&gt;" style="whiteSpace=wrap;html=1;fontSize=24;align=left;fillColor=none;strokeColor=none;" parent="1" vertex="1">
          <mxGeometry x="280" y="290" width="70" height="40" as="geometry" />
        </mxCell>
        <mxCell id="G9SRQUJ1ZkAxIyxl74F2-43" value="" style="endArrow=classic;html=1;rounded=0;exitX=0.833;exitY=0.5;exitDx=0;exitDy=0;exitPerimeter=0;strokeColor=default;entryX=0;entryY=0.5;entryDx=0;entryDy=0;" parent="1" target="G9SRQUJ1ZkAxIyxl74F2-41" edge="1">
          <mxGeometry width="50" height="50" relative="1" as="geometry">
            <mxPoint x="296.30999999999995" y="310" as="sourcePoint" />
            <mxPoint x="318" y="310" as="targetPoint" />
            <Array as="points" />
          </mxGeometry>
        </mxCell>
        <mxCell id="G9SRQUJ1ZkAxIyxl74F2-44" value="2" style="whiteSpace=wrap;html=1;aspect=fixed;fontSize=24;" parent="1" vertex="1">
          <mxGeometry x="378" y="290" width="40" height="40" as="geometry" />
        </mxCell>
        <mxCell id="G9SRQUJ1ZkAxIyxl74F2-45" value="3" style="whiteSpace=wrap;html=1;aspect=fixed;fontSize=24;" parent="1" vertex="1">
          <mxGeometry x="418" y="290" width="40" height="40" as="geometry" />
        </mxCell>
        <mxCell id="G9SRQUJ1ZkAxIyxl74F2-48" value="&lt;font face=&quot;Courier New&quot;&gt;x&lt;/font&gt;" style="whiteSpace=wrap;html=1;fontSize=24;align=left;fillColor=none;strokeColor=none;" parent="1" vertex="1">
          <mxGeometry x="40" y="280" width="70" height="40" as="geometry" />
        </mxCell>
      </root>
    </mxGraphModel>
  </diagram>
</mxfile>
